<svg width="45" height="35" viewBox="0 0 45 35" fill="none" xmlns="http://www.w3.org/2000/svg">
<path d="M35.625 13.7975V4.37503C35.625 2.30687 33.9432 0.625 31.8749 0.625H3.74994C1.68179 0.625 0 2.30679 0 4.37503V23.125C0 25.1932 1.68179 26.875 3.75003 26.875H24.7748C26.0031 31.1969 29.9771 34.375 34.6875 34.375C36.5003 34.375 38.2828 33.898 39.8447 32.9944C40.2924 32.7353 40.4462 32.1622 40.1861 31.7136C39.927 31.265 39.353 31.1102 38.9053 31.3721C37.6291 32.1101 36.1706 32.5 34.6874 32.5C30.0347 32.5 26.2499 28.7152 26.2499 24.0625C26.2499 19.4099 30.0348 15.625 34.6874 15.625C39.3401 15.625 43.1249 19.4099 43.1249 24.0625V25.0001C43.1249 26.0337 42.2836 26.875 41.25 26.875C40.2164 26.875 39.375 26.0337 39.375 25.0001V21.25C39.375 20.7318 38.9557 20.3125 38.4375 20.3125C38.1853 20.3125 37.9587 20.4145 37.7904 20.5762C36.9618 19.8378 35.882 19.375 34.6874 19.375C32.1029 19.375 30 21.4779 30 24.0624C30 26.647 32.1029 28.75 34.6875 28.75C36.0846 28.75 37.3269 28.1233 38.1865 27.1502C38.8656 28.115 39.9829 28.75 41.2501 28.75C43.3182 28.75 45 27.0682 45 25V24.0624C45 18.6926 40.873 14.2734 35.625 13.7975ZM3.75003 2.49997H31.875C31.9141 2.49997 31.9467 2.51992 31.9852 2.52229L18.5834 13.5229C18.1064 13.8233 17.4152 13.761 17.1048 13.5706L3.64096 2.52212C3.67901 2.51983 3.71136 2.49997 3.75003 2.49997ZM33.75 13.7975C28.502 14.2734 24.375 18.6926 24.375 24.0625C24.375 24.3789 24.3944 24.6908 24.4224 25.0001H3.75003C2.71644 25.0001 1.87506 24.1587 1.87506 23.1251V4.37503C1.87506 4.10951 1.93368 3.85876 2.0337 3.62972L15.998 15.0812C16.5437 15.4374 17.1708 15.6251 17.8126 15.6251C18.4297 15.6251 19.033 15.4512 19.564 15.1216C19.6171 15.0932 19.6675 15.0594 19.7151 15.02L33.5913 3.62954C33.6914 3.85876 33.7501 4.10951 33.7501 4.37512V13.7975H33.75ZM34.6875 26.875C33.1366 26.875 31.875 25.6134 31.875 24.0625C31.875 22.5116 33.1366 21.25 34.6875 21.25C36.2384 21.25 37.5 22.5116 37.5 24.0625C37.5 25.6134 36.2384 26.875 34.6875 26.875Z" fill="white"/>
</svg>
