<svg width="41" height="45" viewBox="0 0 41 45" fill="none" xmlns="http://www.w3.org/2000/svg">
<path d="M28.0125 29.7321C32.8011 22.218 32.1991 23.1555 32.3371 22.9596C34.0805 20.5006 35.002 17.6064 35.002 14.5898C35.002 6.59004 28.5103 0 20.5 0C12.5158 0 5.99805 6.57703 5.99805 14.5898C5.99805 17.6045 6.93883 20.5744 8.73936 23.0665L12.9873 29.7322C8.44554 30.4301 0.724609 32.51 0.724609 37.0898C0.724609 38.7593 1.81428 41.1385 7.00545 42.9925C10.6302 44.287 15.4226 45 20.5 45C29.9944 45 40.2754 42.3218 40.2754 37.0898C40.2754 32.5092 32.5635 30.4315 28.0125 29.7321ZM10.9418 21.6163C10.9273 21.5936 10.9122 21.5714 10.8964 21.5496C9.3981 19.4884 8.63477 17.0456 8.63477 14.5898C8.63477 7.99647 13.9439 2.63672 20.5 2.63672C27.0425 2.63672 32.3652 7.99884 32.3652 14.5898C32.3652 17.0496 31.6163 19.4095 30.1991 21.4164C30.0721 21.5839 30.7347 20.5545 20.5 36.6143L10.9418 21.6163ZM20.5 42.3633C10.1294 42.3633 3.36133 39.315 3.36133 37.0898C3.36133 35.5943 6.83898 33.1352 14.5452 32.1767L19.3882 39.776C19.6302 40.1558 20.0495 40.3857 20.4999 40.3857C20.9504 40.3857 21.3697 40.1557 21.6116 39.776L26.4545 32.1767C34.1609 33.1352 37.6387 35.5943 37.6387 37.0898C37.6387 39.2961 30.9315 42.3633 20.5 42.3633Z" fill="white"/>
</svg>
