<svg width="43" height="43" viewBox="0 0 43 43" fill="none" xmlns="http://www.w3.org/2000/svg">
<path d="M35.5634 25.8759C34.6422 24.9167 33.531 24.4038 32.3533 24.4038C31.1851 24.4038 30.0644 24.9072 29.1051 25.8664L26.1039 28.8581C25.8569 28.7252 25.61 28.6017 25.3726 28.4782C25.0306 28.3073 24.7077 28.1458 24.4323 27.9749C21.621 26.1893 19.0662 23.8624 16.6158 20.8517C15.4286 19.3511 14.6308 18.0879 14.0515 16.8057C14.8303 16.0934 15.5521 15.3526 16.2549 14.6403C16.5208 14.3744 16.7868 14.0989 17.0527 13.833C19.0472 11.8385 19.0472 9.25518 17.0527 7.26069L14.4599 4.66786C14.1654 4.37344 13.8615 4.06951 13.5766 3.76559C13.0067 3.17674 12.4084 2.5689 11.7911 1.99905C10.8698 1.08728 9.76807 0.602905 8.60937 0.602905C7.45067 0.602905 6.32995 1.08728 5.3802 1.99905C5.3707 2.00854 5.3707 2.00854 5.3612 2.01804L2.13203 5.2757C0.916346 6.49139 0.223024 7.97301 0.0710635 9.69207C-0.156878 12.4654 0.659912 15.0487 1.28675 16.7393C2.82536 20.8897 5.12376 24.7362 8.55238 28.8581C12.7123 33.8254 17.7175 37.7479 23.4351 40.5116C25.6195 41.5469 28.5352 42.7721 31.7929 42.981C31.9924 42.9905 32.2013 43 32.3913 43C34.5852 43 36.4277 42.2117 37.8713 40.6446C37.8808 40.6256 37.8998 40.6161 37.9093 40.5971C38.4032 39.9988 38.9731 39.4574 39.5714 38.8781C39.9798 38.4887 40.3977 38.0803 40.8061 37.6529C41.7463 36.6746 42.2402 35.5349 42.2402 34.3667C42.2402 33.189 41.7369 32.0588 40.7776 31.1091L35.5634 25.8759ZM38.9636 35.8768C38.9541 35.8768 38.9541 35.8863 38.9636 35.8768C38.5932 36.2757 38.2133 36.6366 37.8049 37.0355C37.1875 37.6244 36.5607 38.2417 35.9718 38.9351C35.0126 39.9608 33.8824 40.4452 32.4008 40.4452C32.2583 40.4452 32.1063 40.4452 31.9639 40.4357C29.1431 40.2552 26.5218 39.1535 24.5558 38.2132C19.1802 35.6109 14.4599 31.9164 10.5374 27.2341C7.29871 23.3306 5.13326 19.7215 3.69913 15.8465C2.81586 13.4816 2.49294 11.6391 2.6354 9.90102C2.73038 8.7898 3.15777 7.86854 3.94607 7.08024L7.18473 3.84157C7.65012 3.40469 8.14399 3.16725 8.62836 3.16725C9.22671 3.16725 9.71109 3.52815 10.015 3.83208C10.0245 3.84157 10.034 3.85107 10.0435 3.86057C10.6229 4.40193 11.1737 4.96229 11.7531 5.56063C12.0475 5.86455 12.3514 6.16848 12.6553 6.48189L15.2482 9.07473C16.2549 10.0815 16.2549 11.0122 15.2482 12.019C14.9727 12.2944 14.7068 12.5698 14.4314 12.8358C13.6336 13.6526 12.8738 14.4124 12.0475 15.1532C12.0285 15.1722 12.0095 15.1817 12 15.2007C11.1832 16.0174 11.3352 16.8152 11.5061 17.3566C11.5156 17.3851 11.5251 17.4136 11.5346 17.4421C12.2089 19.0757 13.1587 20.6143 14.6023 22.4473L14.6118 22.4568C17.2332 25.686 19.9969 28.2028 23.0457 30.1308C23.4351 30.3778 23.834 30.5772 24.2139 30.7672C24.5558 30.9381 24.8787 31.0996 25.1541 31.2705C25.1921 31.2895 25.2301 31.318 25.2681 31.337C25.591 31.4985 25.8949 31.5744 26.2083 31.5744C26.9966 31.5744 27.4905 31.0806 27.652 30.9191L30.9001 27.6709C31.2231 27.348 31.7359 26.9586 32.3343 26.9586C32.9231 26.9586 33.4075 27.329 33.7019 27.652C33.7114 27.6614 33.7114 27.6615 33.7209 27.6709L38.9541 32.9041C39.9323 33.8729 39.9323 34.8701 38.9636 35.8768Z" fill="white"/>
</svg>
